<svg xmlns="http://www.w3.org/2000/svg" width="455.03973388671875" height="300.6715087890625" viewBox="-585.3843383789062 -76.32984924316406 455.03973388671875 300.6715087890625"><title>Neo4j Graph Visualization</title><desc>Created using Neo4j (http://www.neo4j.com/)</desc><g class="layer relationships"><g class="relationship" transform="translate(-342.86563581419296 83.17979132677809) rotate(391.25917105874316)"><path class="outline" fill="#A5ABB6" stroke="none" d="M 25 1 L 84.34395792708746 1 L 84.34395792708746 -1 L 25 -1 Z M 122.34353068099371 1 L 181.68748860808117 1 L 181.68748860808117 4 L 189.68748860808117 0 L 181.68748860808117 -4 L 181.68748860808117 -1 L 122.34353068099371 -1 Z"/><text text-anchor="middle" pointer-events="none" font-size="8px" fill="#000000" x="103.34374430404058" y="3" font-family="sans-serif">担任职务</text></g><g class="relationship" transform="translate(-342.86563581419296 83.17979132677809) rotate(222.40784708975582)"><path class="outline" fill="#A5ABB6" stroke="none" d="M 25 1 L 77.75947299674061 1 L 77.75947299674061 -1 L 25 -1 Z M 107.7591525621703 1 L 160.5186255589109 1 L 160.5186255589109 4 L 168.5186255589109 0 L 160.5186255589109 -4 L 160.5186255589109 -1 L 107.7591525621703 -1 Z"/><text text-anchor="middle" pointer-events="none" font-size="8px" fill="#000000" x="92.75931277945546" y="3" transform="rotate(180 92.75931277945546 0)" font-family="sans-serif">就职于</text></g><g class="relationship" transform="translate(-342.86563581419296 83.17979132677809) rotate(507.769118389959)"><path class="outline" fill="#A5ABB6" stroke="none" d="M 25 1 L 82.15218224278743 1 L 82.15218224278743 -1 L 25 -1 Z M 120.15175499669368 1 L 177.30393723948112 1 L 177.30393723948112 4 L 185.30393723948112 0 L 177.30393723948112 -4 L 177.30393723948112 -1 L 120.15175499669368 -1 Z"/><text text-anchor="middle" pointer-events="none" font-size="8px" fill="#000000" x="101.15196861974056" y="3" transform="rotate(180 101.15196861974056 0)" font-family="sans-serif">所属科室</text></g><g class="relationship" transform="translate(-485.7526254277054 -47.329850605908035) rotate(485.99934710535894)"><path class="outline" fill="#569480" stroke="none" d="M 25 1 L 45.08399706591671 1 L 45.08399706591671 -1 L 25 -1 Z M 67.08378344286984 1 L 87.16778050878655 1 L 87.16778050878655 4 L 95.16778050878655 0 L 87.16778050878655 -4 L 87.16778050878655 -1 L 67.08378344286984 -1 Z"/><text text-anchor="middle" pointer-events="none" font-size="8px" fill="#000000" x="56.083890254393275" y="3" transform="rotate(180 56.083890254393275 0)" font-family="sans-serif">位于</text></g></g><g class="layer nodes"><g class="node" transform="translate(-342.86563581419296,83.17979132677809)"><circle class="outline" cx="0" cy="0" r="25" fill="#F16667" stroke="#eb2728" stroke-width="2px"/><text text-anchor="middle" pointer-events="none" font-family="sans-serif" dy="1.5625" font-size="25" fill="#FFFFFF"/><text text-anchor="middle" pointer-events="none" y="5" font-size="10px" fill="#FFFFFF" font-family="sans-serif"> 吴正祥</text></g><g class="node" transform="translate(-159.3445827881485,194.5832960340213)"><circle class="outline" cx="0" cy="0" r="25" fill="#569480" stroke="#447666" stroke-width="2px"/><text text-anchor="middle" pointer-events="none" font-family="sans-serif" dy="1.5625" font-size="25" fill="#FFFFFF"/><text text-anchor="middle" pointer-events="none" y="5" font-size="10px" fill="#FFFFFF" font-family="sans-serif">  主任医师</text></g><g class="node" transform="translate(-485.7526254277054,-47.329850605908035)"><circle class="outline" cx="0" cy="0" r="25" fill="#FFC454" stroke="#d7a013" stroke-width="2px"/><text text-anchor="middle" pointer-events="none" font-family="sans-serif" dy="1.5625" font-size="25" fill="#604A0E"/><text text-anchor="middle" pointer-events="none" y="5" font-size="10px" fill="#604A0E" font-family="sans-serif"> 安徽省…</text></g><g class="node" transform="translate(-520.7629625016848,195.34167066138718)"><circle class="outline" cx="0" cy="0" r="25" fill="#8DCC93" stroke="#5db665" stroke-width="2px"/><text text-anchor="middle" pointer-events="none" font-family="sans-serif" dy="1.5625" font-size="25" fill="#604A0E"/><text text-anchor="middle" pointer-events="none" y="5" font-size="10px" fill="#604A0E" font-family="sans-serif"> 消化内科</text></g><g class="node" transform="translate(-556.3843667946717,49.88873086840627)"><circle class="outline" cx="0" cy="0" r="25" fill="#57C7E3" stroke="#23b3d7" stroke-width="2px"/><text text-anchor="middle" pointer-events="none" font-family="sans-serif" dy="1.5625" font-size="25" fill="#FFFFFF"/><text text-anchor="middle" pointer-events="none" y="5" font-size="10px" fill="#FFFFFF" font-family="sans-serif"> 安徽</text></g></g></svg>